# Blender 4.3.0
# www.blender.org
mtllib Ground_Plane.mtl
o Ground_Plane
v -40.000000 0.000000 40.000000
v 40.000000 0.000000 40.000000
v -40.000000 0.000000 -40.000000
v 40.000000 0.000000 -40.000000
v -40.000000 2.000000 -40.000000
v -40.000000 2.000000 40.000000
v 40.000000 2.000000 40.000000
v 40.000000 2.000000 -40.000000
vn -0.0000 1.0000 -0.0000
vn -0.0000 -0.0000 -1.0000
vn -1.0000 -0.0000 -0.0000
vn 1.0000 -0.0000 -0.0000
vt -9.500000 -9.500000
vt 10.500000 -9.500000
vt 10.500001 10.499997
vt -9.500000 10.500001
vt -9.500000 -9.499997
vt -9.500000 -10.000000
vt 10.500000 -10.000000
vt 10.499997 -9.500000
vt 11.000000 -9.500000
vt 11.000000 10.500000
vt 10.500000 10.500000
vt -9.500000 10.500000
vt -10.000000 10.500000
vt -10.000002 -9.500000
s 0
usemtl Material_Composite_[O]_[O]_[X]_Ground_Plane
f 1/1/1 2/2/1 4/3/1 3/4/1
f 1/5/2 6/6/2 7/7/2 2/2/2
f 2/8/3 7/9/3 8/10/3 4/11/3
f 3/12/4 5/13/4 6/14/4 1/1/4
