# Blender 4.3.0
# www.blender.org
mtllib Med_Ramp.mtl
o Med_Ramp
v -2.500000 0.000000 0.000000
v -2.500000 0.100000 0.000000
v -2.500000 0.000000 -15.000000
v -2.500000 5.000000 -15.000000
v 2.500000 0.000000 0.000000
v 2.500000 0.100000 0.000000
v 2.500000 0.000000 -15.000000
v 2.500000 5.000000 -15.000000
v -2.500000 0.000000 -14.000000
v -2.500000 5.000000 -14.000000
v 2.500000 0.000000 -14.000000
v 2.500000 5.000000 -14.000000
vn -1.0000 -0.0000 -0.0000
vn -0.0000 -0.0000 -1.0000
vn 1.0000 -0.0000 -0.0000
vn -0.0000 -0.0000 1.0000
vn -0.0000 0.9439 0.3304
vn -0.0000 1.0000 -0.0000
vn -0.0000 -1.0000 -0.0000
vt 0.666667 0.933333
vt 1.000000 0.933333
vt 1.000000 1.000000
vt 0.666667 1.000000
vt 0.238860 0.000000
vt 0.238860 0.238860
vt -0.000000 0.238860
vt -0.000000 0.000000
vt 0.333333 0.933333
vt 0.000000 0.933333
vt 0.326666 0.000000
vt 0.333333 0.000000
vt 0.000000 1.000000
vt 0.000000 0.995223
vt 0.238860 0.995223
vt 0.238860 1.000000
vt -0.000000 0.286632
vt 0.238860 0.286632
vt 0.333333 1.000000
vt -0.000000 1.000000
vt 0.666666 -0.000000
vt 0.673333 -0.000000
s 0
usemtl Material_Composite_[O]_[X]_[X]_Ramp
f 9/1/1 10/2/1 4/3/1 3/4/1
f 3/5/2 4/6/2 8/7/2 7/8/2
f 11/9/3 12/10/3 6/11/3 5/12/3
f 5/13/4 6/14/4 2/15/4 1/16/4
f 12/17/5 10/18/5 2/15/5 6/14/5
f 8/7/6 4/6/6 10/18/6 12/17/6
f 7/19/3 8/20/3 12/10/3 11/9/3
f 1/21/1 2/22/1 10/2/1 9/1/1
f 3/4/7 7/19/7 11/9/7 9/1/7
f 9/1/7 11/9/7 5/12/7 1/21/7
