# Blender 4.3.0
# www.blender.org
mtllib Platform.mtl
o Platform
v -0.500000 0.000000 0.000000
v 0.500000 0.000000 -0.000000
v 0.500000 1.000000 -0.000000
v -0.500000 1.000000 0.000000
v -0.500000 1.000000 -1.000000
v -0.500000 0.000000 -1.000000
v 0.500000 0.000000 -1.000000
v 0.500000 1.000000 -1.000000
vn -1.0000 -0.0000 -0.0000
vn 1.0000 -0.0000 -0.0000
vn -0.0000 -1.0000 -0.0000
vn -0.0000 1.0000 -0.0000
vn -0.0000 -0.0000 1.0000
vn -0.0000 -0.0000 -1.0000
vt 0.640000 0.880000
vt 0.590000 0.880000
vt 0.590000 0.830000
vt 0.640000 0.830000
vt 0.640000 0.980000
vt 0.590000 0.980000
vt 0.590000 0.930000
vt 0.640000 0.930000
vt 0.690000 0.830000
vt 0.640000 0.780000
vt 0.690000 0.780000
vt 0.525000 0.720000
vt 0.525000 0.520000
vt 0.725000 0.520000
vt 0.725000 0.720000
vt 0.590000 0.780000
s 0
usemtl Material_Composite_[O]_[X]_[X]_Palette
f 1/1/1 4/2/1 5/3/1 6/4/1
f 7/5/2 8/6/2 3/7/2 2/8/2
f 1/9/3 6/4/3 7/10/3 2/11/3
f 5/12/4 4/13/4 3/14/4 8/15/4
f 1/1/5 2/8/5 3/7/5 4/2/5
f 6/4/6 5/3/6 8/16/6 7/10/6
