# Blender 4.3.0
# www.blender.org
mtllib Ramp.mtl
o Ramp
v -0.500000 0.000000 -1.000000
v 0.500000 0.000000 -1.000000
v 0.500000 1.000000 -1.000000
v -0.500000 0.000000 0.000000
v -0.500000 1.000000 -1.000000
v 0.500000 0.000000 0.000000
vn -0.0000 0.7071 0.7071
vn -1.0000 -0.0000 -0.0000
vn 1.0000 -0.0000 -0.0000
vn -0.0000 -0.0000 -1.0000
vn -0.0000 -1.0000 -0.0000
vt 0.555101 0.521000
vt 0.696522 0.521000
vt 0.696522 0.721000
vt 0.555101 0.721000
vt 0.658333 0.913333
vt 0.725000 0.980000
vt 0.591667 0.980000
vt 0.525000 0.913333
vt 0.525000 0.780000
vt 0.591667 0.846667
vt 0.658333 0.780000
vt 0.725000 0.846667
s 0
usemtl Material_Composite_[O]_[X]_[X]_Palette
f 4/1/1 6/2/1 3/3/1 5/4/1
f 1/5/2 4/6/2 5/7/2
f 3/8/3 6/9/3 2/10/3
f 2/10/4 1/5/4 5/7/4 3/8/4
f 1/5/5 2/10/5 6/11/5 4/12/5
