# Blender 4.3.0
# www.blender.org
mtllib Tire.mtl
o Tire
v -0.100000 0.000000 -0.199516
v 0.100000 -0.000000 -0.199516
v -0.100000 -0.038924 -0.195682
v 0.100000 -0.038924 -0.195682
v -0.100000 -0.076352 -0.184329
v 0.100000 -0.076352 -0.184329
v -0.100000 -0.110845 -0.165892
v 0.100000 -0.110845 -0.165892
v -0.100000 -0.141079 -0.141079
v 0.100000 -0.141079 -0.141079
v -0.100000 -0.165892 -0.110845
v 0.100000 -0.165892 -0.110845
v -0.100000 -0.184329 -0.076352
v 0.100000 -0.184329 -0.076352
v -0.100000 -0.195682 -0.038924
v 0.100000 -0.195683 -0.038924
v -0.100000 -0.199516 0.000000
v 0.100000 -0.199516 0.000000
v -0.100000 -0.195682 0.038924
v 0.100000 -0.195683 0.038924
v -0.100000 -0.184329 0.076352
v 0.100000 -0.184329 0.076352
v -0.100000 -0.165892 0.110845
v 0.100000 -0.165892 0.110845
v -0.100000 -0.141079 0.141079
v 0.100000 -0.141079 0.141079
v -0.100000 -0.110845 0.165892
v 0.100000 -0.110845 0.165892
v -0.100000 -0.076352 0.184329
v 0.100000 -0.076352 0.184329
v -0.100000 -0.038924 0.195682
v 0.100000 -0.038924 0.195682
v -0.100000 0.000000 0.199516
v 0.100000 -0.000000 0.199516
v -0.100000 0.038924 0.195682
v 0.100000 0.038924 0.195682
v -0.100000 0.076352 0.184329
v 0.100000 0.076352 0.184329
v -0.100000 0.110845 0.165892
v 0.100000 0.110845 0.165892
v -0.100000 0.141079 0.141079
v 0.100000 0.141079 0.141079
v -0.100000 0.165892 0.110845
v 0.100000 0.165892 0.110845
v -0.100000 0.184329 0.076352
v 0.100000 0.184329 0.076352
v -0.100000 0.195683 0.038924
v 0.100000 0.195682 0.038924
v -0.100000 0.199516 0.000000
v 0.100000 0.199516 0.000000
v -0.100000 0.195683 -0.038924
v 0.100000 0.195682 -0.038924
v -0.100000 0.184329 -0.076352
v 0.100000 0.184329 -0.076352
v -0.100000 0.165892 -0.110845
v 0.100000 0.165892 -0.110845
v -0.100000 0.141079 -0.141079
v 0.100000 0.141079 -0.141079
v -0.100000 0.110845 -0.165892
v 0.100000 0.110845 -0.165892
v -0.100000 0.076352 -0.184329
v 0.100000 0.076352 -0.184329
v -0.100000 0.038924 -0.195682
v 0.100000 0.038924 -0.195682
v -0.100000 0.000000 -0.300000
v -0.100000 -0.058527 -0.294236
v 0.100000 -0.058527 -0.294236
v 0.100000 -0.000000 -0.300000
v -0.100000 -0.114805 -0.277164
v 0.100000 -0.114805 -0.277164
v -0.100000 -0.166671 -0.249441
v 0.100000 -0.166671 -0.249441
v -0.100000 -0.212132 -0.212132
v 0.100000 -0.212132 -0.212132
v -0.100000 -0.249441 -0.166671
v 0.100000 -0.249441 -0.166671
v -0.100000 -0.277164 -0.114805
v 0.100000 -0.277164 -0.114805
v -0.100000 -0.294236 -0.058527
v 0.100000 -0.294236 -0.058527
v -0.100000 -0.300000 0.000000
v 0.100000 -0.300000 0.000000
v -0.100000 -0.294236 0.058527
v 0.100000 -0.294236 0.058527
v -0.100000 -0.277164 0.114805
v 0.100000 -0.277164 0.114805
v -0.100000 -0.249441 0.166671
v 0.100000 -0.249441 0.166671
v -0.100000 -0.212132 0.212132
v 0.100000 -0.212132 0.212132
v -0.100000 -0.166671 0.249441
v 0.100000 -0.166671 0.249441
v -0.100000 -0.114805 0.277164
v 0.100000 -0.114805 0.277164
v -0.100000 -0.058527 0.294236
v 0.100000 -0.058527 0.294236
v -0.100000 0.000000 0.300000
v 0.100000 -0.000000 0.300000
v -0.100000 0.058527 0.294236
v 0.100000 0.058527 0.294236
v -0.100000 0.114805 0.277164
v 0.100000 0.114805 0.277164
v -0.100000 0.166671 0.249441
v 0.100000 0.166671 0.249441
v -0.100000 0.212132 0.212132
v 0.100000 0.212132 0.212132
v -0.100000 0.249441 0.166671
v 0.100000 0.249441 0.166671
v -0.100000 0.277164 0.114805
v 0.100000 0.277164 0.114805
v -0.100000 0.294236 0.058527
v 0.100000 0.294236 0.058527
v -0.100000 0.300000 0.000000
v 0.100000 0.300000 0.000000
v -0.100000 0.294236 -0.058527
v 0.100000 0.294236 -0.058527
v -0.100000 0.277164 -0.114805
v 0.100000 0.277164 -0.114805
v -0.100000 0.249441 -0.166671
v 0.100000 0.249441 -0.166671
v -0.100000 0.212132 -0.212132
v 0.100000 0.212132 -0.212132
v -0.100000 0.166671 -0.249441
v 0.100000 0.166671 -0.249441
v -0.100000 0.114805 -0.277164
v 0.100000 0.114805 -0.277164
v -0.100000 0.058527 -0.294236
v 0.100000 0.058527 -0.294236
vn -0.0000 -0.0000 -1.0000
vn -0.0000 -0.1951 -0.9808
vn -0.0000 -0.3827 -0.9239
vn -0.0000 -0.5556 -0.8315
vn -0.0000 -0.7071 -0.7071
vn -0.0000 -0.8315 -0.5556
vn -0.0000 -0.9239 -0.3827
vn -0.0000 -0.9808 -0.1951
vn -0.0000 -1.0000 -0.0000
vn -0.0000 -0.9808 0.1951
vn -0.0000 -0.9239 0.3827
vn -0.0000 -0.8315 0.5556
vn -0.0000 -0.7071 0.7071
vn -0.0000 -0.5556 0.8315
vn -0.0000 -0.3827 0.9239
vn -0.0000 -0.1951 0.9808
vn -0.0000 -0.0000 1.0000
vn -0.0000 0.1951 0.9808
vn -0.0000 0.3827 0.9239
vn -0.0000 0.5556 0.8315
vn -0.0000 0.7071 0.7071
vn -0.0000 0.8315 0.5556
vn -0.0000 0.9239 0.3827
vn -0.0000 0.9808 0.1951
vn -0.0000 1.0000 -0.0000
vn -0.0000 0.9808 -0.1951
vn -0.0000 0.9239 -0.3827
vn -0.0000 0.8315 -0.5556
vn -0.0000 0.7071 -0.7071
vn -0.0000 0.5556 -0.8315
vn -0.0000 0.3827 -0.9239
vn -0.0000 0.1951 -0.9808
vn -1.0000 -0.0000 -0.0000
vn 1.0000 -0.0000 -0.0000
vt 0.263474 0.759861
vt 0.293880 0.759861
vt 0.293880 0.790266
vt 0.263474 0.790266
vt 0.293880 0.820672
vt 0.263474 0.820672
vt 0.293880 0.851077
vt 0.263474 0.851077
vt 0.293880 0.881483
vt 0.263474 0.881483
vt 0.293880 0.911888
vt 0.263474 0.911888
vt 0.293880 0.942294
vt 0.263474 0.942294
vt 0.293880 0.972700
vt 0.263474 0.972700
vt 0.710794 0.749943
vt 0.710794 0.684756
vt 0.775981 0.684756
vt 0.775981 0.749943
vt 0.263474 0.030127
vt 0.293880 0.030127
vt 0.293880 0.060533
vt 0.263474 0.060533
vt 0.293880 0.090939
vt 0.263474 0.090939
vt 0.293880 0.121344
vt 0.263474 0.121344
vt 0.293880 0.151750
vt 0.263474 0.151750
vt 0.293880 0.182155
vt 0.263474 0.182155
vt 0.293880 0.212561
vt 0.263474 0.212561
vt 0.293880 0.242966
vt 0.263474 0.242966
vt 0.293880 0.273372
vt 0.263474 0.273372
vt 0.293880 0.303777
vt 0.263474 0.303777
vt 0.293880 0.334183
vt 0.263474 0.334183
vt 0.293880 0.364589
vt 0.263474 0.364589
vt 0.293880 0.394994
vt 0.263474 0.394994
vt 0.293880 0.425400
vt 0.263474 0.425400
vt 0.293880 0.455805
vt 0.263474 0.455805
vt 0.293880 0.486211
vt 0.263474 0.486211
vt 0.293880 0.516616
vt 0.263474 0.516616
vt 0.293880 0.547022
vt 0.263474 0.547022
vt 0.293880 0.577427
vt 0.263474 0.577427
vt 0.293880 0.607833
vt 0.263474 0.607833
vt 0.293880 0.638239
vt 0.263474 0.638239
vt 0.293880 0.668644
vt 0.263474 0.668644
vt 0.293880 0.699050
vt 0.263474 0.699050
vt 0.202663 0.729455
vt 0.202663 0.699050
vt 0.233069 0.699050
vt 0.233069 0.729455
vt 0.293880 0.729455
vt 0.263474 0.729455
vt 0.202663 0.759861
vt 0.233069 0.759861
vt 0.233069 0.790266
vt 0.324285 0.759861
vt 0.324285 0.790266
vt 0.233069 0.820672
vt 0.324285 0.820672
vt 0.233069 0.851077
vt 0.324285 0.851077
vt 0.233069 0.881483
vt 0.324285 0.881483
vt 0.233069 0.911888
vt 0.324285 0.911888
vt 0.233069 0.942294
vt 0.324285 0.942294
vt 0.233069 0.972700
vt 0.324285 0.972700
vt 0.775981 0.815130
vt 0.710794 0.815130
vt 0.710794 0.619570
vt 0.775981 0.619570
vt 0.233069 0.060533
vt 0.233069 0.030127
vt 0.324285 0.030127
vt 0.324285 0.060533
vt 0.233069 0.090939
vt 0.324285 0.090939
vt 0.233069 0.121344
vt 0.324285 0.121344
vt 0.233069 0.151750
vt 0.324285 0.151750
vt 0.233069 0.182155
vt 0.324285 0.182155
vt 0.233069 0.212561
vt 0.324285 0.212561
vt 0.233069 0.242966
vt 0.324285 0.242966
vt 0.233069 0.273372
vt 0.324285 0.273372
vt 0.233069 0.303777
vt 0.324285 0.303777
vt 0.233069 0.334183
vt 0.324285 0.334183
vt 0.233069 0.364589
vt 0.324285 0.364589
vt 0.233069 0.394994
vt 0.324285 0.394994
vt 0.233069 0.425400
vt 0.324285 0.425400
vt 0.233069 0.455805
vt 0.324285 0.455805
vt 0.233069 0.486211
vt 0.324285 0.486211
vt 0.233069 0.516616
vt 0.324285 0.516616
vt 0.233069 0.547022
vt 0.324285 0.547022
vt 0.233069 0.577427
vt 0.324285 0.577427
vt 0.233069 0.607833
vt 0.324285 0.607833
vt 0.233069 0.638239
vt 0.324285 0.638239
vt 0.233069 0.668644
vt 0.324285 0.668644
vt 0.324285 0.699050
vt 0.324285 0.729455
vt 0.202663 0.668644
vt 0.202663 0.638239
vt 0.202663 0.607833
vt 0.202663 0.577427
vt 0.202663 0.547022
vt 0.202663 0.516616
vt 0.202663 0.486211
vt 0.202663 0.455805
vt 0.202663 0.425400
vt 0.202663 0.394994
vt 0.202663 0.364589
vt 0.202663 0.334183
vt 0.202663 0.303777
vt 0.202663 0.273372
vt 0.202663 0.242966
vt 0.202663 0.212561
vt 0.202663 0.182155
vt 0.202663 0.151750
vt 0.202663 0.121344
vt 0.202663 0.090939
vt 0.202663 0.060533
vt 0.202663 0.030127
vt 0.775981 0.880316
vt 0.710794 0.880316
vt 0.202663 0.972700
vt 0.202663 0.942294
vt 0.202663 0.911888
vt 0.202663 0.881483
vt 0.202663 0.851077
vt 0.202663 0.820672
vt 0.202663 0.790266
s 1
usemtl Material_Composite_[O]_[X]_[X]_Tire
f 65/1/1 68/2/1 67/3/2 66/4/2
f 66/4/2 67/3/2 70/5/3 69/6/3
f 69/6/3 70/5/3 72/7/4 71/8/4
f 71/8/4 72/7/4 74/9/5 73/10/5
f 73/10/5 74/9/5 76/11/6 75/12/6
f 75/12/6 76/11/6 78/13/7 77/14/7
f 77/14/7 78/13/7 80/15/8 79/16/8
f 79/17/8 80/18/8 82/19/9 81/20/9
f 81/21/9 82/22/9 84/23/10 83/24/10
f 83/24/10 84/23/10 86/25/11 85/26/11
f 85/26/11 86/25/11 88/27/12 87/28/12
f 87/28/12 88/27/12 90/29/13 89/30/13
f 89/30/13 90/29/13 92/31/14 91/32/14
f 91/32/14 92/31/14 94/33/15 93/34/15
f 93/34/15 94/33/15 96/35/16 95/36/16
f 95/36/16 96/35/16 98/37/17 97/38/17
f 97/38/17 98/37/17 100/39/18 99/40/18
f 99/40/18 100/39/18 102/41/19 101/42/19
f 101/42/19 102/41/19 104/43/20 103/44/20
f 103/44/20 104/43/20 106/45/21 105/46/21
f 105/46/21 106/45/21 108/47/22 107/48/22
f 107/48/22 108/47/22 110/49/23 109/50/23
f 109/50/23 110/49/23 112/51/24 111/52/24
f 111/52/24 112/51/24 114/53/25 113/54/25
f 113/54/25 114/53/25 116/55/26 115/56/26
f 115/56/26 116/55/26 118/57/27 117/58/27
f 117/58/27 118/57/27 120/59/28 119/60/28
f 119/60/28 120/59/28 122/61/29 121/62/29
f 121/62/29 122/61/29 124/63/30 123/64/30
f 123/64/30 124/63/30 126/65/31 125/66/31
f 64/67/16 62/68/15 61/69/15 63/70/16
f 125/66/31 126/65/31 128/71/32 127/72/32
f 127/72/32 128/71/32 68/2/1 65/1/1
f 2/73/17 64/67/16 63/70/16 1/74/17
f 3/75/33 1/74/33 65/1/33 66/4/33
f 2/76/34 4/77/34 67/3/34 68/2/34
f 5/78/33 3/75/33 66/4/33 69/6/33
f 4/77/34 6/79/34 70/5/34 67/3/34
f 7/80/33 5/78/33 69/6/33 71/8/33
f 6/79/34 8/81/34 72/7/34 70/5/34
f 9/82/33 7/80/33 71/8/33 73/10/33
f 8/81/34 10/83/34 74/9/34 72/7/34
f 11/84/33 9/82/33 73/10/33 75/12/33
f 10/83/34 12/85/34 76/11/34 74/9/34
f 13/86/33 11/84/33 75/12/33 77/14/33
f 12/85/34 14/87/34 78/13/34 76/11/34
f 15/88/33 13/86/33 77/14/33 79/16/33
f 14/87/34 16/89/34 80/15/34 78/13/34
f 17/90/33 15/91/33 79/17/33 81/20/33
f 16/92/34 18/93/34 82/19/34 80/18/34
f 19/94/33 17/95/33 81/21/33 83/24/33
f 18/96/34 20/97/34 84/23/34 82/22/34
f 21/98/33 19/94/33 83/24/33 85/26/33
f 20/97/34 22/99/34 86/25/34 84/23/34
f 23/100/33 21/98/33 85/26/33 87/28/33
f 22/99/34 24/101/34 88/27/34 86/25/34
f 25/102/33 23/100/33 87/28/33 89/30/33
f 24/101/34 26/103/34 90/29/34 88/27/34
f 27/104/33 25/102/33 89/30/33 91/32/33
f 26/103/34 28/105/34 92/31/34 90/29/34
f 29/106/33 27/104/33 91/32/33 93/34/33
f 28/105/34 30/107/34 94/33/34 92/31/34
f 31/108/33 29/106/33 93/34/33 95/36/33
f 30/107/34 32/109/34 96/35/34 94/33/34
f 33/110/33 31/108/33 95/36/33 97/38/33
f 32/109/34 34/111/34 98/37/34 96/35/34
f 35/112/33 33/110/33 97/38/33 99/40/33
f 34/111/34 36/113/34 100/39/34 98/37/34
f 37/114/33 35/112/33 99/40/33 101/42/33
f 36/113/34 38/115/34 102/41/34 100/39/34
f 39/116/33 37/114/33 101/42/33 103/44/33
f 38/115/34 40/117/34 104/43/34 102/41/34
f 41/118/33 39/116/33 103/44/33 105/46/33
f 40/117/34 42/119/34 106/45/34 104/43/34
f 43/120/33 41/118/33 105/46/33 107/48/33
f 42/119/34 44/121/34 108/47/34 106/45/34
f 45/122/33 43/120/33 107/48/33 109/50/33
f 44/121/34 46/123/34 110/49/34 108/47/34
f 47/124/33 45/122/33 109/50/33 111/52/33
f 46/123/34 48/125/34 112/51/34 110/49/34
f 49/126/33 47/124/33 111/52/33 113/54/33
f 48/125/34 50/127/34 114/53/34 112/51/34
f 51/128/33 49/126/33 113/54/33 115/56/33
f 50/127/34 52/129/34 116/55/34 114/53/34
f 53/130/33 51/128/33 115/56/33 117/58/33
f 52/129/34 54/131/34 118/57/34 116/55/34
f 55/132/33 53/130/33 117/58/33 119/60/33
f 54/131/34 56/133/34 120/59/34 118/57/34
f 57/134/33 55/132/33 119/60/33 121/62/33
f 56/133/34 58/135/34 122/61/34 120/59/34
f 59/136/33 57/134/33 121/62/33 123/64/33
f 58/135/34 60/137/34 124/63/34 122/61/34
f 61/69/33 59/136/33 123/64/33 125/66/33
f 60/137/34 62/138/34 126/65/34 124/63/34
f 63/70/33 61/69/33 125/66/33 127/72/33
f 62/138/34 64/139/34 128/71/34 126/65/34
f 1/74/33 63/70/33 127/72/33 65/1/33
f 64/139/34 2/76/34 68/2/34 128/71/34
f 62/68/15 60/140/14 59/136/14 61/69/15
f 60/140/14 58/141/13 57/134/13 59/136/14
f 58/141/13 56/142/12 55/132/12 57/134/13
f 56/142/12 54/143/11 53/130/11 55/132/12
f 54/143/11 52/144/10 51/128/10 53/130/11
f 52/144/10 50/145/9 49/126/9 51/128/10
f 50/145/9 48/146/8 47/124/8 49/126/9
f 48/146/8 46/147/7 45/122/7 47/124/8
f 46/147/7 44/148/6 43/120/6 45/122/7
f 44/148/6 42/149/5 41/118/5 43/120/6
f 42/149/5 40/150/4 39/116/4 41/118/5
f 40/150/4 38/151/3 37/114/3 39/116/4
f 38/151/3 36/152/2 35/112/2 37/114/3
f 36/152/2 34/153/1 33/110/1 35/112/2
f 34/153/1 32/154/32 31/108/32 33/110/1
f 32/154/32 30/155/31 29/106/31 31/108/32
f 30/155/31 28/156/30 27/104/30 29/106/31
f 28/156/30 26/157/29 25/102/29 27/104/30
f 26/157/29 24/158/28 23/100/28 25/102/29
f 24/158/28 22/159/27 21/98/27 23/100/28
f 22/159/27 20/160/26 19/94/26 21/98/27
f 20/160/26 18/161/25 17/95/25 19/94/26
f 18/162/25 16/163/24 15/91/24 17/90/25
f 16/164/24 14/165/23 13/86/23 15/88/24
f 14/165/23 12/166/22 11/84/22 13/86/23
f 12/166/22 10/167/21 9/82/21 11/84/22
f 10/167/21 8/168/20 7/80/20 9/82/21
f 8/168/20 6/169/19 5/78/19 7/80/20
f 6/169/19 4/170/18 3/75/18 5/78/19
f 4/170/18 2/73/17 1/74/17 3/75/18
