# Blender 4.3.0
# www.blender.org
mtllib Tire.mtl
o Tire
v -0.100000 0.000000 -0.199516
v 0.100000 -0.000000 -0.199516
v -0.100000 -0.038924 -0.195682
v 0.100000 -0.038924 -0.195682
v -0.100000 -0.076352 -0.184329
v 0.100000 -0.076352 -0.184329
v -0.100000 -0.110845 -0.165892
v 0.100000 -0.110845 -0.165892
v -0.100000 -0.141079 -0.141079
v 0.100000 -0.141079 -0.141079
v -0.100000 -0.165892 -0.110845
v 0.100000 -0.165892 -0.110845
v -0.100000 -0.184329 -0.076352
v 0.100000 -0.184329 -0.076352
v -0.100000 -0.195682 -0.038924
v 0.100000 -0.195683 -0.038924
v -0.100000 -0.199516 0.000000
v 0.100000 -0.199516 0.000000
v -0.100000 -0.195682 0.038924
v 0.100000 -0.195683 0.038924
v -0.100000 -0.184329 0.076352
v 0.100000 -0.184329 0.076352
v -0.100000 -0.165892 0.110845
v 0.100000 -0.165892 0.110845
v -0.100000 -0.141079 0.141079
v 0.100000 -0.141079 0.141079
v -0.100000 -0.110845 0.165892
v 0.100000 -0.110845 0.165892
v -0.100000 -0.076352 0.184329
v 0.100000 -0.076352 0.184329
v -0.100000 -0.038924 0.195682
v 0.100000 -0.038924 0.195682
v -0.100000 0.000000 0.199516
v 0.100000 -0.000000 0.199516
v -0.100000 0.038924 0.195682
v 0.100000 0.038924 0.195682
v -0.100000 0.076352 0.184329
v 0.100000 0.076352 0.184329
v -0.100000 0.110845 0.165892
v 0.100000 0.110845 0.165892
v -0.100000 0.141079 0.141079
v 0.100000 0.141079 0.141079
v -0.100000 0.165892 0.110845
v 0.100000 0.165892 0.110845
v -0.100000 0.184329 0.076352
v 0.100000 0.184329 0.076352
v -0.100000 0.195683 0.038924
v 0.100000 0.195682 0.038924
v -0.100000 0.199516 0.000000
v 0.100000 0.199516 0.000000
v -0.100000 0.195683 -0.038924
v 0.100000 0.195682 -0.038924
v -0.100000 0.184329 -0.076352
v 0.100000 0.184329 -0.076352
v -0.100000 0.165892 -0.110845
v 0.100000 0.165892 -0.110845
v -0.100000 0.141079 -0.141079
v 0.100000 0.141079 -0.141079
v -0.100000 0.110845 -0.165892
v 0.100000 0.110845 -0.165892
v -0.100000 0.076352 -0.184329
v 0.100000 0.076352 -0.184329
v -0.100000 0.038924 -0.195682
v 0.100000 0.038924 -0.195682
v -0.100000 0.000000 -0.300000
v -0.100000 -0.058527 -0.294236
v 0.100000 -0.058527 -0.294236
v 0.100000 -0.000000 -0.300000
v -0.100000 -0.114805 -0.277164
v 0.100000 -0.114805 -0.277164
v -0.100000 -0.166671 -0.249441
v 0.100000 -0.166671 -0.249441
v -0.100000 -0.212132 -0.212132
v 0.100000 -0.212132 -0.212132
v -0.100000 -0.249441 -0.166671
v 0.100000 -0.249441 -0.166671
v -0.100000 -0.277164 -0.114805
v 0.100000 -0.277164 -0.114805
v -0.100000 -0.294236 -0.058527
v 0.100000 -0.294236 -0.058527
v -0.100000 -0.300000 0.000000
v 0.100000 -0.300000 0.000000
v -0.100000 -0.294236 0.058527
v 0.100000 -0.294236 0.058527
v -0.100000 -0.277164 0.114805
v 0.100000 -0.277164 0.114805
v -0.100000 -0.249441 0.166671
v 0.100000 -0.249441 0.166671
v -0.100000 -0.212132 0.212132
v 0.100000 -0.212132 0.212132
v -0.100000 -0.166671 0.249441
v 0.100000 -0.166671 0.249441
v -0.100000 -0.114805 0.277164
v 0.100000 -0.114805 0.277164
v -0.100000 -0.058527 0.294236
v 0.100000 -0.058527 0.294236
v -0.100000 0.000000 0.300000
v 0.100000 -0.000000 0.300000
v -0.100000 0.058527 0.294236
v 0.100000 0.058527 0.294236
v -0.100000 0.114805 0.277164
v 0.100000 0.114805 0.277164
v -0.100000 0.166671 0.249441
v 0.100000 0.166671 0.249441
v -0.100000 0.212132 0.212132
v 0.100000 0.212132 0.212132
v -0.100000 0.249441 0.166671
v 0.100000 0.249441 0.166671
v -0.100000 0.277164 0.114805
v 0.100000 0.277164 0.114805
v -0.100000 0.294236 0.058527
v 0.100000 0.294236 0.058527
v -0.100000 0.300000 0.000000
v 0.100000 0.300000 0.000000
v -0.100000 0.294236 -0.058527
v 0.100000 0.294236 -0.058527
v -0.100000 0.277164 -0.114805
v 0.100000 0.277164 -0.114805
v -0.100000 0.249441 -0.166671
v 0.100000 0.249441 -0.166671
v -0.100000 0.212132 -0.212132
v 0.100000 0.212132 -0.212132
v -0.100000 0.166671 -0.249441
v 0.100000 0.166671 -0.249441
v -0.100000 0.114805 -0.277164
v 0.100000 0.114805 -0.277164
v -0.100000 0.058527 -0.294236
v 0.100000 0.058527 -0.294236
vn -0.0000 -0.0980 -0.9952
vn -0.0000 -0.2903 -0.9569
vn -0.0000 -0.4714 -0.8819
vn -0.0000 -0.6344 -0.7730
vn -0.0000 -0.7730 -0.6344
vn -0.0000 -0.8819 -0.4714
vn -0.0000 -0.9569 -0.2903
vn -0.0000 -0.9952 -0.0980
vn -0.0000 -0.9952 0.0980
vn -0.0000 -0.9569 0.2903
vn -0.0000 -0.8819 0.4714
vn -0.0000 -0.7730 0.6344
vn -0.0000 -0.6344 0.7730
vn -0.0000 -0.4714 0.8819
vn -0.0000 -0.2903 0.9569
vn -0.0000 -0.0980 0.9952
vn -0.0000 0.0980 0.9952
vn -0.0000 0.2903 0.9569
vn -0.0000 0.4714 0.8819
vn -0.0000 0.6344 0.7730
vn -0.0000 0.7730 0.6344
vn -0.0000 0.8819 0.4714
vn -0.0000 0.9569 0.2903
vn -0.0000 0.9952 0.0980
vn -0.0000 0.9952 -0.0980
vn -0.0000 0.9569 -0.2903
vn -0.0000 0.8819 -0.4714
vn -0.0000 0.7730 -0.6344
vn -0.0000 0.6344 -0.7730
vn -0.0000 0.4714 -0.8819
vn -0.0000 0.2903 -0.9569
vn -0.0000 0.0980 -0.9952
vn -1.0000 -0.0000 -0.0000
vn 1.0000 -0.0000 -0.0000
vt 0.122814 0.927253
vt 0.143181 0.927246
vt 0.143326 0.933312
vt 0.122720 0.933414
vt 0.143560 0.939468
vt 0.122726 0.939658
vt 0.143886 0.945758
vt 0.122564 0.946067
vt 0.144475 0.952178
vt 0.122480 0.952633
vt 0.145167 0.958855
vt 0.122152 0.959515
vt 0.146353 0.965945
vt 0.121739 0.966827
vt 0.147989 0.973630
vt 0.120757 0.975000
vt 0.125000 0.625000
vt 0.125000 0.558333
vt 0.144603 0.558333
vt 0.144603 0.625000
vt 0.122096 0.775000
vt 0.150035 0.776862
vt 0.147999 0.784949
vt 0.122822 0.783258
vt 0.146661 0.792086
vt 0.123160 0.790817
vt 0.145797 0.798901
vt 0.123345 0.797802
vt 0.145131 0.805403
vt 0.123394 0.804551
vt 0.144663 0.811822
vt 0.123439 0.811052
vt 0.144429 0.818088
vt 0.123459 0.817433
vt 0.144153 0.824268
vt 0.123468 0.823720
vt 0.143932 0.830412
vt 0.123470 0.829938
vt 0.143886 0.836476
vt 0.123463 0.836101
vt 0.143770 0.842501
vt 0.123442 0.842213
vt 0.143656 0.848540
vt 0.123492 0.848339
vt 0.143621 0.854598
vt 0.123462 0.854477
vt 0.143542 0.860679
vt 0.123404 0.860571
vt 0.143481 0.866774
vt 0.123395 0.866651
vt 0.143493 0.872837
vt 0.123326 0.872694
vt 0.143379 0.878897
vt 0.123228 0.878682
vt 0.143316 0.884978
vt 0.123280 0.884694
vt 0.143223 0.891077
vt 0.123187 0.890750
vt 0.143242 0.897138
vt 0.123083 0.896761
vt 0.143113 0.903193
vt 0.123077 0.902779
vt 0.143128 0.909217
vt 0.123075 0.908868
vt 0.143038 0.915241
vt 0.122967 0.914997
vt 0.078227 0.919741
vt 0.078394 0.913819
vt 0.109358 0.914695
vt 0.109340 0.920775
vt 0.143131 0.921236
vt 0.122888 0.921119
vt 0.078024 0.925660
vt 0.109305 0.926884
vt 0.109247 0.933024
vt 0.156093 0.927006
vt 0.156420 0.932835
vt 0.108784 0.939206
vt 0.156851 0.938719
vt 0.108709 0.945465
vt 0.157418 0.944658
vt 0.108158 0.951718
vt 0.157658 0.950610
vt 0.107858 0.958041
vt 0.158637 0.956351
vt 0.107023 0.964238
vt 0.159744 0.962136
vt 0.106067 0.970338
vt 0.161722 0.967591
vt 0.141320 0.658333
vt 0.128283 0.658333
vt 0.128283 0.525000
vt 0.141320 0.525000
vt 0.107541 0.785605
vt 0.106519 0.779370
vt 0.163488 0.783679
vt 0.161360 0.789151
vt 0.108243 0.791985
vt 0.160015 0.794908
vt 0.108731 0.798385
vt 0.159163 0.800803
vt 0.109075 0.804762
vt 0.158645 0.806788
vt 0.109330 0.811087
vt 0.158332 0.812890
vt 0.109494 0.817373
vt 0.157565 0.818892
vt 0.109658 0.823607
vt 0.157472 0.824867
vt 0.109800 0.829794
vt 0.157450 0.830940
vt 0.109907 0.835954
vt 0.156825 0.836927
vt 0.110060 0.842086
vt 0.156844 0.842822
vt 0.109791 0.848181
vt 0.156899 0.848781
vt 0.109868 0.854267
vt 0.156982 0.854803
vt 0.109911 0.860336
vt 0.157078 0.860889
vt 0.109968 0.866392
vt 0.157182 0.867055
vt 0.110022 0.872432
vt 0.156610 0.873140
vt 0.110103 0.878465
vt 0.156689 0.879109
vt 0.109780 0.884484
vt 0.156811 0.885163
vt 0.109838 0.890514
vt 0.156957 0.891318
vt 0.109940 0.896557
vt 0.156442 0.897412
vt 0.109638 0.902585
vt 0.156581 0.903447
vt 0.109332 0.908627
vt 0.156101 0.909431
vt 0.156266 0.915358
vt 0.155858 0.921236
vt 0.078538 0.907897
vt 0.078669 0.901981
vt 0.078783 0.896072
vt 0.078862 0.890166
vt 0.078917 0.884261
vt 0.078945 0.878349
vt 0.078944 0.872433
vt 0.078909 0.866512
vt 0.078847 0.860583
vt 0.078772 0.854645
vt 0.078676 0.848691
vt 0.078555 0.842725
vt 0.078402 0.836754
vt 0.078209 0.830774
vt 0.077973 0.824775
vt 0.077699 0.818766
vt 0.077379 0.812744
vt 0.077011 0.806705
vt 0.076593 0.800662
vt 0.076119 0.794621
vt 0.075587 0.788589
vt 0.075000 0.782573
vt 0.141320 0.725000
vt 0.128283 0.725000
vt 0.075000 0.967227
vt 0.075608 0.961152
vt 0.076170 0.955231
vt 0.076668 0.949308
vt 0.077100 0.943390
vt 0.077467 0.937476
vt 0.077776 0.931568
s 0
usemtl Material_Composite_[O]_[X]_[X]_Palette
f 65/1/1 68/2/1 67/3/1 66/4/1
f 66/4/2 67/3/2 70/5/2 69/6/2
f 69/6/3 70/5/3 72/7/3 71/8/3
f 71/8/4 72/7/4 74/9/4 73/10/4
f 73/10/5 74/9/5 76/11/5 75/12/5
f 75/12/6 76/11/6 78/13/6 77/14/6
f 77/14/7 78/13/7 80/15/7 79/16/7
f 79/17/8 80/18/8 82/19/8 81/20/8
f 81/21/9 82/22/9 84/23/9 83/24/9
f 83/24/10 84/23/10 86/25/10 85/26/10
f 85/26/11 86/25/11 88/27/11 87/28/11
f 87/28/12 88/27/12 90/29/12 89/30/12
f 89/30/13 90/29/13 92/31/13 91/32/13
f 91/32/14 92/31/14 94/33/14 93/34/14
f 93/34/15 94/33/15 96/35/15 95/36/15
f 95/36/16 96/35/16 98/37/16 97/38/16
f 97/38/17 98/37/17 100/39/17 99/40/17
f 99/40/18 100/39/18 102/41/18 101/42/18
f 101/42/19 102/41/19 104/43/19 103/44/19
f 103/44/20 104/43/20 106/45/20 105/46/20
f 105/46/21 106/45/21 108/47/21 107/48/21
f 107/48/22 108/47/22 110/49/22 109/50/22
f 109/50/23 110/49/23 112/51/23 111/52/23
f 111/52/24 112/51/24 114/53/24 113/54/24
f 113/54/25 114/53/25 116/55/25 115/56/25
f 115/56/26 116/55/26 118/57/26 117/58/26
f 117/58/27 118/57/27 120/59/27 119/60/27
f 119/60/28 120/59/28 122/61/28 121/62/28
f 121/62/29 122/61/29 124/63/29 123/64/29
f 123/64/30 124/63/30 126/65/30 125/66/30
f 64/67/15 62/68/15 61/69/15 63/70/15
f 125/66/31 126/65/31 128/71/31 127/72/31
f 127/72/32 128/71/32 68/2/32 65/1/32
f 2/73/16 64/67/16 63/70/16 1/74/16
f 3/75/33 1/74/33 65/1/33 66/4/33
f 2/76/34 4/77/34 67/3/34 68/2/34
f 5/78/33 3/75/33 66/4/33 69/6/33
f 4/77/34 6/79/34 70/5/34 67/3/34
f 7/80/33 5/78/33 69/6/33 71/8/33
f 6/79/34 8/81/34 72/7/34 70/5/34
f 9/82/33 7/80/33 71/8/33 73/10/33
f 8/81/34 10/83/34 74/9/34 72/7/34
f 11/84/33 9/82/33 73/10/33 75/12/33
f 10/83/34 12/85/34 76/11/34 74/9/34
f 13/86/33 11/84/33 75/12/33 77/14/33
f 12/85/34 14/87/34 78/13/34 76/11/34
f 15/88/33 13/86/33 77/14/33 79/16/33
f 14/87/34 16/89/34 80/15/34 78/13/34
f 17/90/33 15/91/33 79/17/33 81/20/33
f 16/92/34 18/93/34 82/19/34 80/18/34
f 19/94/33 17/95/33 81/21/33 83/24/33
f 18/96/34 20/97/34 84/23/34 82/22/34
f 21/98/33 19/94/33 83/24/33 85/26/33
f 20/97/34 22/99/34 86/25/34 84/23/34
f 23/100/33 21/98/33 85/26/33 87/28/33
f 22/99/34 24/101/34 88/27/34 86/25/34
f 25/102/33 23/100/33 87/28/33 89/30/33
f 24/101/34 26/103/34 90/29/34 88/27/34
f 27/104/33 25/102/33 89/30/33 91/32/33
f 26/103/34 28/105/34 92/31/34 90/29/34
f 29/106/33 27/104/33 91/32/33 93/34/33
f 28/105/34 30/107/34 94/33/34 92/31/34
f 31/108/33 29/106/33 93/34/33 95/36/33
f 30/107/34 32/109/34 96/35/34 94/33/34
f 33/110/33 31/108/33 95/36/33 97/38/33
f 32/109/34 34/111/34 98/37/34 96/35/34
f 35/112/33 33/110/33 97/38/33 99/40/33
f 34/111/34 36/113/34 100/39/34 98/37/34
f 37/114/33 35/112/33 99/40/33 101/42/33
f 36/113/34 38/115/34 102/41/34 100/39/34
f 39/116/33 37/114/33 101/42/33 103/44/33
f 38/115/34 40/117/34 104/43/34 102/41/34
f 41/118/33 39/116/33 103/44/33 105/46/33
f 40/117/34 42/119/34 106/45/34 104/43/34
f 43/120/33 41/118/33 105/46/33 107/48/33
f 42/119/34 44/121/34 108/47/34 106/45/34
f 45/122/33 43/120/33 107/48/33 109/50/33
f 44/121/34 46/123/34 110/49/34 108/47/34
f 47/124/33 45/122/33 109/50/33 111/52/33
f 46/123/34 48/125/34 112/51/34 110/49/34
f 49/126/33 47/124/33 111/52/33 113/54/33
f 48/125/34 50/127/34 114/53/34 112/51/34
f 51/128/33 49/126/33 113/54/33 115/56/33
f 50/127/34 52/129/34 116/55/34 114/53/34
f 53/130/33 51/128/33 115/56/33 117/58/33
f 52/129/34 54/131/34 118/57/34 116/55/34
f 55/132/33 53/130/33 117/58/33 119/60/33
f 54/131/34 56/133/34 120/59/34 118/57/34
f 57/134/33 55/132/33 119/60/33 121/62/33
f 56/133/34 58/135/34 122/61/34 120/59/34
f 59/136/33 57/134/33 121/62/33 123/64/33
f 58/135/34 60/137/34 124/63/34 122/61/34
f 61/69/33 59/136/33 123/64/33 125/66/33
f 60/137/34 62/138/34 126/65/34 124/63/34
f 63/70/33 61/69/33 125/66/33 127/72/33
f 62/138/34 64/139/34 128/71/34 126/65/34
f 1/74/33 63/70/33 127/72/33 65/1/33
f 64/139/34 2/76/34 68/2/34 128/71/34
f 62/68/14 60/140/14 59/136/14 61/69/14
f 60/140/13 58/141/13 57/134/13 59/136/13
f 58/141/12 56/142/12 55/132/12 57/134/12
f 56/142/11 54/143/11 53/130/11 55/132/11
f 54/143/10 52/144/10 51/128/10 53/130/10
f 52/144/9 50/145/9 49/126/9 51/128/9
f 50/145/8 48/146/8 47/124/8 49/126/8
f 48/146/7 46/147/7 45/122/7 47/124/7
f 46/147/6 44/148/6 43/120/6 45/122/6
f 44/148/5 42/149/5 41/118/5 43/120/5
f 42/149/4 40/150/4 39/116/4 41/118/4
f 40/150/3 38/151/3 37/114/3 39/116/3
f 38/151/2 36/152/2 35/112/2 37/114/2
f 36/152/1 34/153/1 33/110/1 35/112/1
f 34/153/32 32/154/32 31/108/32 33/110/32
f 32/154/31 30/155/31 29/106/31 31/108/31
f 30/155/30 28/156/30 27/104/30 29/106/30
f 28/156/29 26/157/29 25/102/29 27/104/29
f 26/157/28 24/158/28 23/100/28 25/102/28
f 24/158/27 22/159/27 21/98/27 23/100/27
f 22/159/26 20/160/26 19/94/26 21/98/26
f 20/160/25 18/161/25 17/95/25 19/94/25
f 18/162/24 16/163/24 15/91/24 17/90/24
f 16/164/23 14/165/23 13/86/23 15/88/23
f 14/165/22 12/166/22 11/84/22 13/86/22
f 12/166/21 10/167/21 9/82/21 11/84/21
f 10/167/20 8/168/20 7/80/20 9/82/20
f 8/168/19 6/169/19 5/78/19 7/80/19
f 6/169/18 4/170/18 3/75/18 5/78/18
f 4/170/17 2/73/17 1/74/17 3/75/17
